<?xml version="1.0" encoding="UTF-8"?>
<svg xmlns="http://www.w3.org/2000/svg" xmlns:xlink="http://www.w3.org/1999/xlink" viewBox="0 0 50 50" width="50px" height="50px">
<g id="surface55333521">
<path style=" stroke:none;fill-rule:nonzero;fill:rgb(100%,100%,100%);fill-opacity:1;" d="M 25 2 C 12.300781 2 2 12.300781 2 25 C 2 37.699219 12.300781 48 25 48 C 37.699219 48 48 37.699219 48 25 C 48 12.300781 37.699219 2 25 2 Z M 25 4 C 36.601562 4 46 13.398438 46 25 C 46 36.601562 36.601562 46 25 46 C 13.398438 46 4 36.601562 4 25 C 4 13.398438 13.398438 4 25 4 Z M 26.5 10 C 23.800781 10 21.800781 10.902344 20.597656 12.402344 C 19.398438 13.902344 19 16 19 18.199219 L 19 20 L 17 20 C 16.5 20 16 20.5 16 21 L 16 26 C 16 26.5 16.5 27 17 27 L 19 27 L 19 39 C 19 39.5 19.5 40 20 40 L 26 40 C 26.5 40 27 39.5 27 39 L 27 27 L 31 27 C 31.125 27 31.246094 26.980469 31.355469 26.945312 C 31.683594 26.835938 31.925781 26.574219 32 26.199219 L 33 21.199219 C 33.101562 20.898438 33 20.601562 32.800781 20.402344 C 32.601562 20.101562 32.300781 20 32 20 L 27 20 L 27 17.800781 C 27 17.550781 27 17.425781 27.027344 17.351562 C 27.050781 17.273438 27.097656 17.25 27.199219 17.199219 C 27.300781 17.097656 27.898438 17 28.699219 17 L 32 17 C 32.5 17 33 16.5 33 16 L 33 12 C 33 11.601562 32.699219 11.199219 32.300781 11.101562 C 32.300781 11.101562 29.398438 10 26.5 10 Z M 26.597656 11.902344 C 28.5 11.902344 30.199219 12.398438 31 12.699219 L 31 15 L 28.699219 15 C 27.597656 15 26.800781 15.101562 26.097656 15.601562 C 25.398438 16 25 16.902344 25 17.800781 L 25 21 C 25 21.5 25.5 22 26 22 L 30.800781 22 L 30.199219 25 L 26 25 C 25.875 25 25.75 25.03125 25.632812 25.085938 C 25.28125 25.25 25 25.625 25 26 L 25 38 L 21 38 L 21 26 C 21 25.875 20.96875 25.75 20.914062 25.632812 C 20.75 25.28125 20.375 25 20 25 L 18 25 L 18 22 L 20 22 C 20.125 22 20.25 21.96875 20.367188 21.914062 C 20.71875 21.75 21 21.375 21 21 L 21 18.199219 C 21 17.699219 21.023438 17.230469 21.074219 16.792969 C 21.222656 15.476562 21.597656 14.425781 22.199219 13.597656 C 23 12.597656 24.300781 11.898438 26.601562 11.898438 Z M 26.597656 11.902344 "/>
</g>
</svg>
